<mxfile host="app.diagrams.net" modified="2021-09-14T21:43:58.459Z" agent="5.0 (Macintosh; Intel Mac OS X 10_15_7) AppleWebKit/537.36 (KHTML, like Gecko) Chrome/92.0.4515.107 Safari/537.36" etag="rf_WTG4gtiGuUxs0tQ5h" version="15.2.4" type="github">
  <diagram id="sTwi_DO6WIjb5WipR5wn" name="Page-1">
    <mxGraphModel dx="2517" dy="907" grid="1" gridSize="10" guides="1" tooltips="1" connect="1" arrows="1" fold="1" page="1" pageScale="1" pageWidth="827" pageHeight="1169" math="0" shadow="0">
      <root>
        <mxCell id="0" />
        <mxCell id="1" parent="0" />
        <mxCell id="wBWUrbLk5zqfegrjJCd4-1" value="" style="rounded=1;arcSize=10;dashed=1;fillColor=none;gradientColor=none;dashPattern=1 1;strokeWidth=2;" vertex="1" parent="1">
          <mxGeometry x="-450" y="72.5" width="350" height="360" as="geometry" />
        </mxCell>
        <mxCell id="wBWUrbLk5zqfegrjJCd4-11" value="" style="aspect=fixed;perimeter=ellipsePerimeter;html=1;align=center;shadow=0;dashed=0;spacingTop=3;image;image=img/lib/active_directory/internet_cloud.svg;" vertex="1" parent="1">
          <mxGeometry x="-570" y="262.5" width="50" height="31.5" as="geometry" />
        </mxCell>
        <mxCell id="wBWUrbLk5zqfegrjJCd4-12" value="" style="endArrow=classic;startArrow=classic;html=1;exitX=1;exitY=0.5;exitDx=0;exitDy=0;entryX=-0.005;entryY=0.591;entryDx=0;entryDy=0;entryPerimeter=0;" edge="1" parent="1" source="wBWUrbLk5zqfegrjJCd4-11">
          <mxGeometry width="50" height="50" relative="1" as="geometry">
            <mxPoint x="-360" y="302.5" as="sourcePoint" />
            <mxPoint x="-391" y="277.98" as="targetPoint" />
          </mxGeometry>
        </mxCell>
        <mxCell id="wBWUrbLk5zqfegrjJCd4-13" value="" style="rounded=1;arcSize=10;dashed=1;strokeColor=#ff0000;fillColor=none;gradientColor=none;dashPattern=8 4;strokeWidth=2;" vertex="1" parent="1">
          <mxGeometry x="-390" y="112.5" width="199.5" height="280" as="geometry" />
        </mxCell>
        <mxCell id="wBWUrbLk5zqfegrjJCd4-14" value="" style="sketch=0;aspect=fixed;html=1;points=[];align=center;image;fontSize=12;image=img/lib/mscae/App_Services.svg;" vertex="1" parent="1">
          <mxGeometry x="-320" y="212.5" width="50" height="50" as="geometry" />
        </mxCell>
        <mxCell id="wBWUrbLk5zqfegrjJCd4-15" value="" style="points=[[0.13,0.02,0],[0.5,0,0],[0.87,0.02,0],[0.885,0.4,0],[0.985,0.985,0],[0.5,1,0],[0.015,0.985,0],[0.115,0.4,0]];verticalLabelPosition=bottom;sketch=0;html=1;verticalAlign=top;aspect=fixed;align=center;pointerEvents=1;shape=mxgraph.cisco19.secure_endpoints;fillColor=#005073;strokeColor=none;" vertex="1" parent="1">
          <mxGeometry x="-570" y="397.5" width="50" height="35" as="geometry" />
        </mxCell>
        <mxCell id="wBWUrbLk5zqfegrjJCd4-16" value="&lt;span style=&quot;color: rgb(0 , 0 , 0) ; font-style: normal ; font-weight: 400 ; letter-spacing: normal ; text-indent: 0px ; text-transform: none ; word-spacing: 0px ; background-color: rgb(255 , 255 , 255) ; display: inline ; float: none&quot;&gt;&lt;font style=&quot;font-size: 10px&quot;&gt;https://hebaz-as-cdwbarcode-cer-eastus-001.azurewebsites.net&lt;/font&gt;&lt;/span&gt;" style="text;html=1;strokeColor=none;fillColor=none;align=center;verticalAlign=middle;whiteSpace=wrap;rounded=0;" vertex="1" parent="1">
          <mxGeometry x="-700" y="442.5" width="290" height="20" as="geometry" />
        </mxCell>
        <mxCell id="wBWUrbLk5zqfegrjJCd4-17" value="" style="endArrow=classic;startArrow=classic;html=1;entryX=0.5;entryY=1;entryDx=0;entryDy=0;" edge="1" parent="1" target="wBWUrbLk5zqfegrjJCd4-11">
          <mxGeometry width="50" height="50" relative="1" as="geometry">
            <mxPoint x="-545" y="392.5" as="sourcePoint" />
            <mxPoint x="-600" y="422.5" as="targetPoint" />
          </mxGeometry>
        </mxCell>
        <mxCell id="wBWUrbLk5zqfegrjJCd4-18" value="" style="rounded=1;arcSize=10;dashed=1;fillColor=none;gradientColor=none;dashPattern=1 1;strokeWidth=2;" vertex="1" parent="1">
          <mxGeometry x="100" y="137.75" width="160" height="199.5" as="geometry" />
        </mxCell>
        <mxCell id="wBWUrbLk5zqfegrjJCd4-19" value="" style="shape=image;html=1;verticalAlign=top;verticalLabelPosition=bottom;labelBackgroundColor=#ffffff;imageAspect=0;aspect=fixed;image=https://cdn4.iconfinder.com/data/icons/logos-brands-5/24/nginx-128.png" vertex="1" parent="1">
          <mxGeometry x="146.75" y="152.5" width="66.5" height="66.5" as="geometry" />
        </mxCell>
        <mxCell id="wBWUrbLk5zqfegrjJCd4-20" value="" style="outlineConnect=0;dashed=0;verticalLabelPosition=bottom;verticalAlign=top;align=center;html=1;shape=mxgraph.aws3.android;fillColor=#8CC64F;gradientColor=none;" vertex="1" parent="1">
          <mxGeometry x="146.75" y="236.25" width="63.25" height="76.25" as="geometry" />
        </mxCell>
        <mxCell id="wBWUrbLk5zqfegrjJCd4-21" value="Api-Multicanal" style="text;html=1;strokeColor=none;fillColor=none;align=center;verticalAlign=middle;whiteSpace=wrap;rounded=0;" vertex="1" parent="1">
          <mxGeometry x="133.38" y="212.5" width="90" height="30" as="geometry" />
        </mxCell>
        <mxCell id="wBWUrbLk5zqfegrjJCd4-22" value="" style="endArrow=classic;startArrow=classic;html=1;entryX=-0.029;entryY=0.472;entryDx=0;entryDy=0;entryPerimeter=0;" edge="1" parent="1" target="wBWUrbLk5zqfegrjJCd4-18">
          <mxGeometry width="50" height="50" relative="1" as="geometry">
            <mxPoint x="-190" y="232.5" as="sourcePoint" />
            <mxPoint x="50" y="252.5" as="targetPoint" />
          </mxGeometry>
        </mxCell>
        <mxCell id="wBWUrbLk5zqfegrjJCd4-24" value="" style="verticalLabelPosition=bottom;html=1;verticalAlign=top;align=center;strokeColor=none;fillColor=#00BEF2;shape=mxgraph.azure.cloud;" vertex="1" parent="1">
          <mxGeometry x="-440" y="40" width="50" height="32.5" as="geometry" />
        </mxCell>
        <mxCell id="wBWUrbLk5zqfegrjJCd4-25" value="" style="rounded=1;arcSize=10;dashed=1;fillColor=none;gradientColor=none;dashPattern=1 1;strokeWidth=2;" vertex="1" parent="1">
          <mxGeometry x="400" y="137.75" width="160" height="199.5" as="geometry" />
        </mxCell>
        <mxCell id="wBWUrbLk5zqfegrjJCd4-26" value="&lt;meta charset=&quot;utf-8&quot;&gt;&lt;span style=&quot;color: rgb(0, 0, 0); font-family: helvetica; font-size: 12px; font-style: normal; font-weight: 400; letter-spacing: normal; text-align: center; text-indent: 0px; text-transform: none; word-spacing: 0px; background-color: rgb(248, 249, 250); display: inline; float: none;&quot;&gt;https://srw2011223.ad.heb.com.mx:8443/api/channel/{channel}/customer/{idCliente}&lt;/span&gt;" style="text;whiteSpace=wrap;html=1;" vertex="1" parent="1">
          <mxGeometry x="203.25" y="402.5" width="470" height="30" as="geometry" />
        </mxCell>
        <mxCell id="wBWUrbLk5zqfegrjJCd4-27" value="" style="outlineConnect=0;dashed=0;verticalLabelPosition=bottom;verticalAlign=top;align=center;html=1;shape=mxgraph.aws3.android;fillColor=#8CC64F;gradientColor=none;" vertex="1" parent="1">
          <mxGeometry x="448.38" y="180" width="63.25" height="76.25" as="geometry" />
        </mxCell>
        <mxCell id="wBWUrbLk5zqfegrjJCd4-28" value="" style="endArrow=classic;startArrow=classic;html=1;entryX=0;entryY=0.5;entryDx=0;entryDy=0;exitX=1;exitY=0.5;exitDx=0;exitDy=0;" edge="1" parent="1" source="wBWUrbLk5zqfegrjJCd4-18" target="wBWUrbLk5zqfegrjJCd4-25">
          <mxGeometry width="50" height="50" relative="1" as="geometry">
            <mxPoint x="40" y="400" as="sourcePoint" />
            <mxPoint x="90" y="350" as="targetPoint" />
          </mxGeometry>
        </mxCell>
        <mxCell id="wBWUrbLk5zqfegrjJCd4-31" value="https://instaleap.hebdigital.net/api/clients/bardcode" style="text;html=1;strokeColor=none;fillColor=none;align=center;verticalAlign=middle;whiteSpace=wrap;rounded=0;" vertex="1" parent="1">
          <mxGeometry x="-190.5" y="242.5" width="292" height="20" as="geometry" />
        </mxCell>
        <mxCell id="wBWUrbLk5zqfegrjJCd4-32" value="App service" style="text;html=1;strokeColor=none;fillColor=none;align=center;verticalAlign=middle;whiteSpace=wrap;rounded=0;" vertex="1" parent="1">
          <mxGeometry x="-335" y="274" width="80" height="20" as="geometry" />
        </mxCell>
        <mxCell id="wBWUrbLk5zqfegrjJCd4-49" style="edgeStyle=orthogonalEdgeStyle;rounded=0;orthogonalLoop=1;jettySize=auto;html=1;entryX=0.5;entryY=1;entryDx=0;entryDy=0;" edge="1" parent="1" source="wBWUrbLk5zqfegrjJCd4-34" target="wBWUrbLk5zqfegrjJCd4-25">
          <mxGeometry relative="1" as="geometry" />
        </mxCell>
        <mxCell id="wBWUrbLk5zqfegrjJCd4-34" value="" style="rounded=1;arcSize=10;dashed=1;fillColor=none;gradientColor=none;dashPattern=1 1;strokeWidth=2;" vertex="1" parent="1">
          <mxGeometry x="90" y="540" width="160" height="199.5" as="geometry" />
        </mxCell>
        <mxCell id="wBWUrbLk5zqfegrjJCd4-35" value="" style="shape=image;html=1;verticalAlign=top;verticalLabelPosition=bottom;labelBackgroundColor=#ffffff;imageAspect=0;aspect=fixed;image=https://cdn4.iconfinder.com/data/icons/logos-brands-5/24/nginx-128.png" vertex="1" parent="1">
          <mxGeometry x="136.75" y="554.75" width="66.5" height="66.5" as="geometry" />
        </mxCell>
        <mxCell id="wBWUrbLk5zqfegrjJCd4-36" value="" style="outlineConnect=0;dashed=0;verticalLabelPosition=bottom;verticalAlign=top;align=center;html=1;shape=mxgraph.aws3.android;fillColor=#8CC64F;gradientColor=none;" vertex="1" parent="1">
          <mxGeometry x="136.75" y="638.5" width="63.25" height="76.25" as="geometry" />
        </mxCell>
        <mxCell id="wBWUrbLk5zqfegrjJCd4-37" value="Api-Multicanal" style="text;html=1;strokeColor=none;fillColor=none;align=center;verticalAlign=middle;whiteSpace=wrap;rounded=0;" vertex="1" parent="1">
          <mxGeometry x="125" y="621.25" width="90" height="20" as="geometry" />
        </mxCell>
        <mxCell id="wBWUrbLk5zqfegrjJCd4-47" value="" style="endArrow=classic;startArrow=classic;html=1;entryX=0.5;entryY=0;entryDx=0;entryDy=0;" edge="1" parent="1" target="wBWUrbLk5zqfegrjJCd4-34">
          <mxGeometry width="50" height="50" relative="1" as="geometry">
            <mxPoint x="170" y="340" as="sourcePoint" />
            <mxPoint x="250" y="510" as="targetPoint" />
          </mxGeometry>
        </mxCell>
        <mxCell id="wBWUrbLk5zqfegrjJCd4-48" value="80.84" style="text;html=1;strokeColor=none;fillColor=none;align=center;verticalAlign=middle;whiteSpace=wrap;rounded=0;" vertex="1" parent="1">
          <mxGeometry x="119" y="340" width="40" height="20" as="geometry" />
        </mxCell>
        <mxCell id="wBWUrbLk5zqfegrjJCd4-50" value="" style="rounded=1;arcSize=10;dashed=1;fillColor=none;gradientColor=none;dashPattern=1 1;strokeWidth=2;strokeColor=#17FF74;" vertex="1" parent="1">
          <mxGeometry y="470" width="700" height="286.5" as="geometry" />
        </mxCell>
        <mxCell id="wBWUrbLk5zqfegrjJCd4-52" value="" style="rounded=1;arcSize=10;dashed=1;fillColor=none;gradientColor=none;dashPattern=1 1;strokeWidth=2;strokeColor=#2B1CFF;" vertex="1" parent="1">
          <mxGeometry x="10" y="102.5" width="700" height="286.5" as="geometry" />
        </mxCell>
        <mxCell id="wBWUrbLk5zqfegrjJCd4-53" value="On-Premise" style="sketch=0;outlineConnect=0;gradientColor=none;html=1;whiteSpace=wrap;fontSize=12;fontStyle=0;shape=mxgraph.aws4.group;grIcon=mxgraph.aws4.group_on_premise;strokeColor=#858B94;fillColor=none;verticalAlign=top;align=left;spacingLeft=30;fontColor=#858B94;dashed=0;" vertex="1" parent="1">
          <mxGeometry x="-70" y="60" width="830" height="740" as="geometry" />
        </mxCell>
        <UserObject label="srw2011223.ad.heb.com.mx" link="srw2011223.ad.heb.com.mx" id="wBWUrbLk5zqfegrjJCd4-54">
          <mxCell style="text;html=1;strokeColor=none;fillColor=none;align=center;verticalAlign=middle;whiteSpace=wrap;rounded=0;" vertex="1" parent="1">
            <mxGeometry x="400" y="110" width="160" height="20" as="geometry" />
          </mxCell>
        </UserObject>
        <mxCell id="wBWUrbLk5zqfegrjJCd4-57" value="Dev/Staging" style="text;html=1;strokeColor=none;fillColor=none;align=center;verticalAlign=middle;whiteSpace=wrap;rounded=0;" vertex="1" parent="1">
          <mxGeometry x="11.5" y="442.5" width="90" height="20" as="geometry" />
        </mxCell>
        <mxCell id="wBWUrbLk5zqfegrjJCd4-58" value="Produccion" style="text;html=1;strokeColor=none;fillColor=none;align=center;verticalAlign=middle;whiteSpace=wrap;rounded=0;" vertex="1" parent="1">
          <mxGeometry x="21.5" y="82.5" width="80" height="20" as="geometry" />
        </mxCell>
        <mxCell id="wBWUrbLk5zqfegrjJCd4-59" value="Servidor 192.168.80.194" style="text;html=1;strokeColor=none;fillColor=none;align=center;verticalAlign=middle;whiteSpace=wrap;rounded=0;" vertex="1" parent="1">
          <mxGeometry x="110" y="112.5" width="140" height="20" as="geometry" />
        </mxCell>
      </root>
    </mxGraphModel>
  </diagram>
</mxfile>
